# xmcd
#
# Track frame offsets:
#	150
#	17652
#	33663
#	51374
#	74226
#	89025
#	106262
#	125951
#	151060
#	164668
#	190884
#	209417
#	223554
#	228859
#	237758
#	251415
#	274970
#	279306
#	295039
#	313279
#	332899
#	346939
#
# Disc length: 4637 seconds
#
# Revision: 0
# Processed by: cddbd v1.5.2PL0 Copyright (c) Steve Scherf et al.
# Submitted via: dBpowerAMP V4.0
#
DISCID=5b121b16
DTITLE=Teenage Filmstars - Buy Our Record Support Our Sickness - Bring Back The Cartel
DYEAR=2009
DGENRE=Rock
TTITLE0=Physical Graffiti
TTITLE1=English Martyrs
TTITLE2=Guru Prophesy
TTITLE3=Feeding The Bluejays
TTITLE4=Designa Socialist
TTITLE5=Carnaby Smooth
TTITLE6=A Clockwork Banana
TTITLE7=H.U.M.
TTITLE8=You Mystify Me
TTITLE9=Jeepers Creepers
TTITLE10=Richard Scott Was OK
TTITLE11=Whatever Happened To Richard Boon
TTITLE12=Debbie Sazer Don't Erase Her
TTITLE13=We're In A Meeting
TTITLE14=Ballad Of Claude Bessy
TTITLE15=Did Geoff Travis Really Look Like Art Garfunkel
TTITLE16=Don't Blink... It's Mike Hinc
TTITLE17=Scott Piering Wears An Earring
TTITLE18=The Unpublishable Pete Walmsley
TTITLE19=How Pink Was Pinko Fowler
TTITLE20=We're Useless But We Mean It!
TTITLE21=Sorry, But We Seem To Have Misplaced 50,000 Of Your Records
EXTD=
EXTT0=
EXTT1=
EXTT2=
EXTT3=
EXTT4=
EXTT5=
EXTT6=
EXTT7=
EXTT8=
EXTT9=
EXTT10=
EXTT11=
EXTT12=
EXTT13=
EXTT14=
EXTT15=
EXTT16=
EXTT17=
EXTT18=
EXTT19=
EXTT20=
EXTT21=
PLAYORDER=
